<svg
        width="20"
        height="20"
        viewBox="0 0 20 20"
        fill="none"
        xmlns="http://www.w3.org/2000/svg"
>
    <path
            d="M17.9532 9.20419C18.2065 9.55944 18.3332 9.7371 18.3332 10C18.3332 10.2629 18.2065 10.4406 17.9532 10.7959C16.8148 12.3922 13.9075 15.8334 9.99984 15.8334C6.09215 15.8334 3.18492 12.3922 2.04654 10.7959C1.79318 10.4406 1.6665 10.2629 1.6665 10C1.6665 9.7371 1.79318 9.55944 2.04654 9.20419C3.18492 7.60789 6.09215 4.16669 9.99984 4.16669C13.9075 4.16669 16.8148 7.60789 17.9532 9.20419Z"
            stroke="#1D2739"
            stroke-width="2"
    />
    <path
            d="M12.5 10C12.5 8.61925 11.3807 7.5 10 7.5C8.61925 7.5 7.5 8.61925 7.5 10C7.5 11.3807 8.61925 12.5 10 12.5C11.3807 12.5 12.5 11.3807 12.5 10Z"
            stroke="#1D2739"
            stroke-width="1.5"
    />
</svg>